<?xml version="1.0" encoding="utf-8"?><svg viewBox="0 0 30 26" xmlns="http://www.w3.org/2000/svg" xmlns:xlink="http://www.w3.org/1999/xlink"><style>:root>svg{display:none}:root>svg:target{display:block}</style><svg fill="none" viewBox="0 0 30 25" id="burger-menu" xmlns="http://www.w3.org/2000/svg"><g fill="#7B6152"><path d="M0 0h30v1H0zM0 6h30v1H0zM0 12h30v1H0zM0 18h30v1H0zM0 24h30v1H0z"/></g></svg><svg fill="none" viewBox="0 0 26 26" id="rightside-menu-close" xmlns="http://www.w3.org/2000/svg"><path fill-rule="evenodd" clip-rule="evenodd" d="M14.436 13 25.703 1.734A1.016 1.016 0 1 0 24.265.297L13 11.564 1.734.297A1.016 1.016 0 1 0 .297 1.734L11.564 13 .297 24.266a1.016 1.016 0 0 0 1.437 1.437L13 14.436l11.266 11.267a1.013 1.013 0 0 0 1.437 0 1.016 1.016 0 0 0 0-1.437L14.436 13Z" fill="#363838"/></svg></svg>